<svg
  version="1.1"
  xmlns="http://www.w3.org/2000/svg"
  style="display: block"
  viewBox="0 0 2048 2048"
  width="1024"
  height="1024"
  preserveAspectRatio="none"
>
  <path
    transform="translate(0,0)"
    fill="rgb(0,0,0)"
    d="M 992.7 244.433 C 994.432 244.114 1000.92 243.996 1002.93 243.945 C 1149.27 240.276 1291.9 278.738 1399.19 382.368 C 1440.96 422.714 1472.09 469.901 1497.68 521.717 C 1533.78 594.832 1543.88 669.793 1568.92 745.776 C 1582.37 787.411 1597.3 828.548 1613.71 869.108 C 1641.19 938.6 1671.48 1005.57 1684.97 1079.74 C 1688.45 1098.85 1691.86 1116.2 1692.29 1135.71 C 1766.74 1146.01 1831.34 1161.53 1899.43 1193.45 C 1893.6 1203.86 1888.16 1215.51 1882.17 1226.32 C 1867.65 1252.65 1851.82 1278.22 1834.74 1302.96 C 1791 1366.93 1737.78 1423.87 1676.9 1471.82 C 1538.69 1579.38 1342.85 1652.43 1174.97 1701.11 C 1143 1710.38 1086.89 1725.87 1054.83 1731.68 C 1044.95 1733.93 1033.93 1737.01 1023.94 1735.63 C 1007.23 1733.33 990.267 1729.19 973.823 1725.5 C 894.458 1707.25 816.172 1684.6 739.325 1657.65 C 695.671 1642.28 652.559 1625.42 610.068 1607.08 C 399.751 1517.37 250.304 1403.29 148.548 1193.16 C 153.741 1191.7 162.548 1187.35 168.066 1184.98 C 177.64 1180.82 187.348 1176.98 197.173 1173.46 C 240.167 1157.94 290.329 1145.5 335.907 1139.99 C 365.193 1136.45 358.176 1137.83 361.583 1111.69 C 376.019 1000.91 429.405 902.295 465.592 798.423 C 477.014 765.518 487.286 732.224 496.387 698.603 C 508.648 652.267 517.638 610.364 534.224 564.742 C 556.017 505 588.602 449.771 630.354 401.805 C 649.68 380.06 671.213 360.382 694.606 343.088 C 784.789 275.186 882.025 251.659 992.7 244.433 z"
  />
  <path
    transform="translate(0,0)"
    fill="rgb(254,218,0)"
    d="M 980.862 292.419 C 983.78 292.258 986.701 292.135 989.622 292.051 C 1131.72 288.124 1255.89 313.989 1361.49 415.079 C 1401.55 454.182 1434.1 500.29 1457.55 551.121 C 1481.42 601.922 1486.93 634.379 1500.28 687.203 C 1507.02 713.217 1514.45 739.05 1522.54 764.675 C 1535.72 804.562 1550.3 843.97 1566.26 882.825 C 1620.55 1016.45 1698.75 1178.07 1578.85 1302.24 C 1597.7 1216.94 1588.61 1157.95 1555.51 1077.09 C 1550.49 1064.84 1540.58 1041.9 1533.99 1031.28 C 1569.01 1133.43 1568.4 1264.4 1489.47 1347.6 C 1479.61 1357.99 1466.69 1367.53 1455.07 1375.94 C 1469.3 1313.9 1479.84 1244.63 1473.73 1181.01 C 1466.24 1103.1 1434.74 1029.21 1412.52 954.903 C 1401.67 918.612 1392.33 880.674 1387.44 843.118 C 1385.08 825.035 1383.87 806.481 1382.18 788.261 C 1407.54 792.304 1440.97 789.118 1466.36 785.102 C 1436.34 780.32 1397.88 765.239 1373.24 747.646 C 1332.3 718.406 1319.06 683.096 1311.01 635.619 C 1297.13 723.152 1241.56 770.803 1153.55 776.768 C 1181.46 734.156 1189.02 693.455 1182.19 642.811 C 1170.46 732.44 1104.54 778.748 1016.89 780.035 C 1023.9 766.839 1028.19 756.973 1033.53 743.246 C 1050.16 702.394 1054.74 661.161 1058.14 617.852 C 1043.4 654.448 1030.7 679.578 1001.5 707.925 C 952.175 755.805 888.023 777.098 820.705 781.54 C 803.957 782.645 786.434 782.132 769.681 781.883 C 815.941 731.489 828.189 695.78 842.127 630.974 C 788.987 715.248 700.969 760.118 608.129 787.614 C 630.767 789.236 648.952 791.706 672.184 788.82 C 667.525 858.449 657.763 910.919 636.463 977.927 C 615.677 1043.32 590.743 1108.86 583.51 1177.35 C 576.461 1244.11 585.104 1305.52 599.61 1370.39 C 588.948 1360.52 577.055 1349.84 568.089 1338.52 C 535.626 1297.53 526.138 1244.59 523.181 1193.79 C 515.863 1236.51 514.992 1293.45 526.264 1335.3 C 471.786 1286.22 460.164 1221.82 462.221 1151.49 C 462.446 1143.81 464.521 1135.26 463.654 1127.75 C 459.91 1133.3 459.533 1143.66 458.073 1150.19 C 448.461 1193.16 445.726 1247.98 458.756 1290.25 C 431.151 1253.34 413.214 1216.47 410.48 1169.95 C 404.338 1065.46 454.866 960.806 492.666 866.994 C 505.331 834.909 517.034 802.452 527.759 769.668 C 537.549 738.907 546.344 707.839 554.133 676.512 C 564.721 634.226 571.712 599.323 589.214 558.993 C 608.143 515.093 633.616 474.315 664.764 438.048 C 746.838 341.896 857.912 302.235 980.862 292.419 z"
  />
  <path
    transform="translate(0,0)"
    fill="rgb(254,254,254)"
    d="M 782.994 407.11 L 783.499 408.467 C 757.466 470.01 678.923 571.336 623.128 607.936 C 621.218 603.068 634.844 565.174 637.53 558.697 C 666.506 488.821 713.324 436.451 782.994 407.11 z"
  />
  <path
    transform="translate(0,0)"
    fill="rgb(253,36,120)"
    d="M 1380.06 503.717 C 1381.93 505.508 1394.13 524.541 1396.56 528 C 1440.25 590.102 1454.96 664.262 1465.73 738.523 C 1465.02 738.251 1463.87 737.876 1463.44 737.29 C 1419.14 676.731 1377.71 578.093 1380.06 503.717 z"
  />
  <path
    transform="translate(0,0)"
    fill="rgb(254,254,254)"
    d="M 554.655 835.766 C 554.691 836.109 554.726 836.452 554.762 836.794 C 553.802 902.394 518.275 995.237 477.397 1043.38 C 477.29 1043.02 476.767 1041.58 476.778 1041.27 C 478.648 986.547 498.127 929.319 524.585 882.062 C 535.553 862.472 543.58 849.474 554.655 835.766 z"
  />
  <path
    transform="translate(0,0)"
    fill="rgb(253,36,120)"
    d="M 1333.08 539.75 C 1334.45 540.768 1334.73 540.965 1335.4 542.58 C 1349.32 576.348 1374.2 604.331 1384.4 640.075 C 1387.82 652.083 1389.32 663.127 1391.38 675.411 C 1387.09 672.934 1379.04 659.766 1375.63 655.063 C 1348.46 617.591 1338.16 584.946 1333.08 539.75 z"
  />
  <path
    transform="translate(0,0)"
    fill="rgb(248,154,110)"
    d="M 1311.25 743.737 C 1320.71 755.924 1328.69 763.566 1339.66 774.429 C 1341.37 787.978 1341.79 803.52 1343.02 817.391 C 1345.2 841.222 1348.45 864.942 1352.76 888.48 C 1356.68 908.38 1361.32 928.131 1366.67 947.695 C 1371.05 964.243 1378.91 993.992 1379.76 1009.97 C 1381.59 1044.13 1328.96 1127.3 1307.34 1150.75 C 1335.25 1136.65 1351.13 1122.63 1372.27 1100.38 C 1366.31 1159.41 1360.43 1221.44 1344.16 1278.6 C 1336.66 1290.31 1299.91 1323.46 1291.3 1330.51 C 1267.82 1349.69 1173.95 1444.92 1155.35 1453.77 C 1119.26 1470.94 939.847 1470.69 907.39 1456.56 C 889.733 1448.87 748.088 1312.15 729.001 1294.25 C 710.324 1276.98 712.388 1276.21 706.173 1251.38 C 694.306 1202.2 686.811 1152.06 683.775 1101.56 C 698.991 1122.04 721.19 1137.11 742.808 1150 C 719.775 1119.44 681.816 1060.39 674.831 1022.69 C 671.154 1002.85 684.425 959.897 689.788 938.697 C 693.739 923.177 697.23 907.544 700.256 891.817 C 707.094 857.663 710.35 822.89 709.97 788.06 C 726.048 780.359 741.783 771.962 757.131 762.893 C 748.435 772.732 729.177 799.165 723.474 810.961 C 804.775 831.027 933.82 814.973 999.771 760.914 C 987.992 777.303 972.752 795.043 959.873 810.962 C 1016.74 819.98 1071.19 818.713 1125.13 795.871 L 1116.5 811.881 C 1194.08 814.862 1258.2 805.371 1311.25 743.737 z"
  />
  <path
    transform="translate(0,0)"
    fill="rgb(248,154,110)"
    d="M 728.851 1345.42 C 732.992 1348.11 750.519 1367.58 755.208 1372.39 C 773.735 1391.13 792.379 1409.74 811.139 1428.24 C 833.667 1450.42 863.963 1480.1 891.637 1494.96 C 933.202 1517.28 1004.02 1516.61 1050.8 1516.22 C 1084.12 1515.93 1130.99 1513.72 1161.61 1500.32 C 1204.95 1481.35 1292.25 1383.13 1329.8 1344.95 C 1321.52 1390.33 1322.19 1448.8 1311.73 1493.86 C 1338.36 1462.54 1371.59 1419.66 1395.72 1386.42 C 1396.63 1403.93 1398.12 1416.04 1403.86 1432.46 C 1427.47 1427.69 1453.16 1415.43 1475.05 1405.3 C 1455.01 1459.53 1421.66 1529.03 1386.06 1574.91 C 1372.49 1585.58 1283.18 1616.43 1263.41 1623.03 C 1206.88 1641.76 1149.86 1658.98 1092.42 1674.67 C 1079.63 1678.18 1045.48 1687.94 1033.74 1689.49 C 1023.04 1690.9 978.481 1677.94 965.57 1674.46 C 896.478 1656.28 828.065 1635.6 760.466 1612.48 C 735.28 1603.81 707.454 1595.52 683.766 1583.5 C 651.877 1567.32 593.503 1447.3 581.531 1410.69 C 604.13 1420.24 626.694 1430.56 651.283 1432.64 C 656.428 1418.23 657.886 1402.51 659.57 1387.37 C 687.011 1425.64 714.689 1458.89 744.145 1495.29 C 740.696 1479.92 738.987 1461.27 737.288 1445.4 C 734.005 1412.11 731.192 1378.78 728.851 1345.42 z"
  />
  <path
    transform="translate(0,0)"
    fill="rgb(253,36,120)"
    d="M 356.412 1175.3 L 357.391 1175.32 C 357.82 1175.88 358.249 1176.43 358.677 1176.99 C 364.315 1247.02 399.957 1304.19 456.168 1345.18 C 478.121 1361.19 496.342 1371.17 519.759 1384.34 C 524.85 1393.11 534.848 1418.59 539.28 1429.04 C 554.662 1465.15 569.546 1501.48 583.927 1538.01 C 547.601 1524.2 521.047 1509.62 487.5 1490.8 C 360.081 1413.78 290.322 1337.04 211.372 1213.14 C 261.887 1194.43 302.966 1184.3 356.412 1175.3 z"
  />
  <path
    transform="translate(0,0)"
    fill="rgb(253,36,120)"
    d="M 1692.43 1175.66 C 1702.89 1176.66 1718.52 1180.04 1728.99 1182.28 C 1764.95 1189.64 1800.22 1200.04 1834.42 1213.37 C 1823.92 1233.06 1804.12 1260.62 1790.98 1278.86 C 1727.54 1366.92 1655.68 1432.92 1563.54 1490.2 C 1528.78 1511.13 1507.08 1522.15 1469.57 1537.63 C 1485.23 1499.26 1501.26 1461.04 1517.65 1422.98 C 1522.17 1412.41 1529.43 1391.2 1534.81 1382.7 C 1562.31 1369.36 1587.94 1352.46 1611.03 1332.44 C 1659.15 1290.93 1687.69 1239.5 1692.43 1175.66 z"
  />
  <path
    transform="translate(0,0)"
    fill="rgb(254,218,0)"
    d="M 640.834 1101.61 C 645.083 1106.35 646.151 1136.19 647.146 1144.46 C 654.208 1203.17 663.131 1261.63 678.457 1318.8 L 667.318 1308.48 C 652.29 1294.14 638.035 1279.01 630.235 1259.43 C 608.673 1205.3 620.384 1153.03 640.834 1101.61 z"
  />
  <path
    transform="translate(0,0)"
    fill="rgb(254,218,0)"
    d="M 1412.21 1102.67 C 1414.78 1105.09 1417.72 1115.8 1419.03 1119.56 C 1429.1 1148.44 1435.6 1174.83 1435.14 1205.69 C 1434.46 1250.94 1419.47 1278.91 1387.65 1309.72 C 1383.59 1313.72 1379.25 1317.61 1375.04 1321.48 C 1391.72 1272.24 1409.02 1156.26 1412.21 1102.67 z"
  />
</svg>
